<svg width="220" height="57" viewBox="0 0 220 57" fill="none" xmlns="http://www.w3.org/2000/svg">
<rect width="220" height="57" fill="white"/>
<g clip-path="url(#clip0_1167_9674)">
<path fill-rule="evenodd" clip-rule="evenodd" d="M83.5649 17L91.3311 34.6519L99.7635 17H104.184L89.0149 47.2778H84.776L89.136 39.0119L79.1292 17H83.5649ZM114.009 17L125 39.0119H120.564L112.465 22.011L107.378 32.7596H114.812L116.023 35.6662H105.97L104.381 39.0119H99.9451L110.936 17H114.009ZM30.064 17L41.0549 39.0119H36.6343L28.535 22.011L23.4332 32.7596H30.8664L32.0775 35.6662H22.0404L20.4357 39.0119H16L26.9908 17H30.064ZM71.8776 17L82.8685 39.0119H78.4328L70.3486 22.011L65.2468 32.7596H72.6951L73.8911 35.6662H63.854L62.2493 39.0119H57.8136L68.8044 17H71.8776ZM41.3425 17L49.4418 34.3189L57.5411 17H61.9768L50.986 39.0119H47.9128L36.9219 17H41.3425Z" fill="#DA291C"/>
</g>
<rect width="1" height="22" transform="matrix(1 0 0 -1 143 39)" fill="#939393"/>
<path d="M208.422 17.0118C204.97 17.0118 201.888 18.614 199.871 21.1105V17.0118H175.032V30.0317L162 17V39H199.869V34.9012C201.888 37.3978 204.968 39 208.42 39C214.482 39 219.414 34.0677 219.414 28.0059C219.414 21.944 214.484 17.0118 208.422 17.0118ZM197.428 30.0435H183.99V25.9722H197.428V30.0435ZM183.99 19.4534H197.428V23.5247H183.99V19.4534ZM164.444 22.8991L178.103 36.5584H164.444V22.8991ZM177.473 32.4733V19.4534H181.545V36.5447L177.473 32.4733ZM183.988 36.5564V32.4851H197.426V36.5564H183.988ZM208.42 36.5564C203.705 36.5564 199.869 32.7204 199.869 28.0059C199.869 23.2913 203.705 19.4553 208.42 19.4553C213.135 19.4553 216.971 23.2913 216.971 28.0059C216.971 32.7204 213.135 36.5564 208.42 36.5564Z" fill="#242424"/>
<path d="M208.422 23.5267C205.951 23.5267 203.943 25.5368 203.943 28.0059C203.943 30.475 205.953 32.4851 208.422 32.4851C210.891 32.4851 212.901 30.475 212.901 28.0059C212.901 25.5368 210.891 23.5267 208.422 23.5267ZM208.422 30.0415C207.3 30.0415 206.386 29.1277 206.386 28.0059C206.386 26.8841 207.3 25.9702 208.422 25.9702C209.544 25.9702 210.458 26.8841 210.458 28.0059C210.458 29.1277 209.544 30.0415 208.422 30.0415Z" fill="#242424"/>
<defs>
<clipPath id="clip0_1167_9674">
<rect width="109" height="30.2778" fill="white" transform="translate(16 17)"/>
</clipPath>
</defs>
</svg>
